<?xml version="1.0" encoding="UTF-8" standalone="no"?>
<!-- Created with Inkscape (http://www.inkscape.org/) -->

<svg
   width="420mm"
   height="297mm"
   viewBox="0 0 420 297"
   version="1.1"
   id="svg1"
   inkscape:version="1.3.2 (091e20e, 2023-11-25, custom)"
   sodipodi:docname="bolqrovo.svg"
   xmlns:inkscape="http://www.inkscape.org/namespaces/inkscape"
   xmlns:sodipodi="http://sodipodi.sourceforge.net/DTD/sodipodi-0.dtd"
   xmlns="http://www.w3.org/2000/svg"
   xmlns:svg="http://www.w3.org/2000/svg">
  <sodipodi:namedview
     id="namedview1"
     pagecolor="#ffffff"
     bordercolor="#000000"
     borderopacity="0.25"
     inkscape:showpageshadow="2"
     inkscape:pageopacity="0.0"
     inkscape:pagecheckerboard="0"
     inkscape:deskcolor="#d1d1d1"
     inkscape:document-units="mm"
     inkscape:zoom="0.32063344"
     inkscape:cx="372.69974"
     inkscape:cy="425.71978"
     inkscape:window-width="1366"
     inkscape:window-height="705"
     inkscape:window-x="-8"
     inkscape:window-y="-8"
     inkscape:window-maximized="1"
     inkscape:current-layer="layer1" />
  <defs
     id="defs1">
    <rect
       x="709.01784"
       y="81.597698"
       width="458.71138"
       height="26.464118"
       id="rect36" />
    <rect
       x="249.5061"
       y="49.90122"
       width="1010.4997"
       height="168.41662"
       id="rect35" />
    <rect
       x="1040.1286"
       y="40.544741"
       width="506.80927"
       height="73.292418"
       id="rect4" />
    <rect
       x="1029.2127"
       y="-28.069436"
       width="801.53835"
       height="90.445961"
       id="rect3" />
  </defs>
  <g
     inkscape:label="Layer 1"
     inkscape:groupmode="layer"
     id="layer1">
    <path
       id="path1"
       style="opacity:1;fill:#800000;stroke-width:0.369354"
       inkscape:transform-center-x="-0.15420935"
       inkscape:transform-center-y="-9.5838552"
       d="m 220.01503,76.699377 -15.8238,49.659373 2.49314,1.85109 13.29386,-41.718973 12.98511,42.174903 2.48376,-1.84533 z m 15.43207,50.121063 1.61665,5.25103 31.43693,-23.3602 -13.19791,39.2215 3.91357,-0.0223 17.38778,-51.673503 z m 23.76924,21.08997 -0.74664,2.21902 47.83351,-0.27197 -35.43779,24.91841 3.50526,2.49026 42.21168,-29.68107 z m 15.15434,29.35572 -4.50872,3.1698 28.54703,20.27625 -39.61683,-0.41337 0.93276,2.81633 51.79975,0.54033 z m -14.64576,25.84901 -3.06087,-0.0317 16.04958,48.45538 -37.86312,-28.41502 -1.2848,4.10472 45.44137,34.10178 z m -26.15921,24.11334 -3.16404,-2.37411 -10.24813,32.73184 -10.60811,-33.8464 -3.17702,2.33589 13.78657,43.98487 z m -27.1973,-1.15278 -1.27759,-4.07588 -39.46173,29.01449 16.38864,-47.90277 -3.09479,0.0332 -19.70562,57.59904 z m -27.44547,-22.93098 0.96379,-2.81632 -38.00668,0.40758 28.25991,-20.08507 -4.46182,-3.20299 -36.91378,26.23568 z m -13.2448,-25.6968 3.50381,-2.49025 -36.14476,-25.94858 48.63787,0.75314 -0.74952,-2.22622 -58.1675,-0.9003 z m 15.2474,-29.91191 3.92726,0.0606 -13.09258,-38.87018 30.76892,22.848 1.66209,-5.21567 -40.5395,-30.104523 z m 21.6036,-15.96158 -5.16736,16.21551 -12.50898,-0.19333 0.74954,2.22622 14.12562,0.21858 5.29431,-16.61516 z m 2.49313,1.85182 15.11394,11.22346 14.44378,-10.73291 -1.61665,-5.25103 -12.82856,9.5325 -13.45041,-9.98843 z m 29.55772,0.49055 5.02523,16.32012 14.95091,-0.0852 0.74664,-2.21901 -13.3321,0.0758 -4.90692,-15.93706 z m 19.97614,16.23499 -5.27195,15.66869 17.07252,12.12592 4.50872,-3.17053 -16.69813,-11.85972 4.30241,-12.78672 z m 11.80057,27.79461 -14.61474,10.27627 3.98932,12.04441 3.06088,0.0317 -3.24484,-9.79725 14.31464,-10.06563 z m -10.62542,22.32068 -17.5739,-0.18323 -6.47019,20.66578 3.16332,2.37412 6.32519,-20.20194 15.48835,0.16159 z m -24.04409,20.48255 -12.32069,-9.2461 -11.09866,8.1604 1.27759,4.07588 9.785,-7.19446 11.07124,8.30902 z m -23.41935,-1.0857 -6.13546,-19.57432 -19.15088,0.2056 -0.96377,2.81633 17.09561,-0.18324 5.97748,19.07152 z m -25.28634,-19.36872 4.23819,-12.3885 -13.57591,-9.74605 -3.50382,2.49025 13.22965,9.49716 -3.48288,10.18033 z m -9.33772,-22.13455 17.35026,-12.33152 -5.3917,-16.00631 -3.92728,-0.0606 4.43441,13.16474 -16.92752,12.0307 z" />
    <path
       d="m 322.98144,181.32742 0.0519,-1.17474 7.79008,0.34399 0.19466,-4.40824 -7.79008,-0.34399 0.0519,-1.17475 8.83429,0.39011 -0.29841,6.75773 z m -0.4133,7.25629 q -0.2369,-0.71635 -0.296,-1.21993 -0.0657,-0.49838 -0.008,-0.98189 0.0865,-0.71935 0.36513,-1.29598 0.28457,-0.57591 0.76084,-0.95532 0.47628,-0.3794 1.15394,-0.54319 0.67695,-0.1579 1.54372,-0.0537 1.57433,0.18924 2.40696,1.17459 0.83853,0.98607 0.65638,2.50144 -0.0688,0.57194 -0.29387,1.10117 -0.22582,0.53512 -0.51106,0.9674 l -1.23235,-0.14813 0.008,-0.0649 q 0.48456,-0.49804 0.74953,-1.01051 0.26426,-0.50658 0.32451,-1.00777 0.11836,-0.9847 -0.47683,-1.60654 -0.5959,-0.61595 -1.76928,-0.757 -1.17337,-0.14104 -1.88647,0.31757 -0.7131,0.45861 -0.83217,1.4492 -0.0418,0.34788 0.006,0.70051 0.0466,0.35851 0.15412,0.65855 0.0851,0.23753 0.21006,0.49181 0.13014,0.26089 0.19545,0.36444 l -0.008,0.0649 z m -1.69666,6.9558 0.20708,-1.08504 4.89433,0.93412 -4.24301,-4.34673 0.18927,-0.9917 6.51604,1.24363 -0.20708,1.08504 -4.82432,-0.92076 4.17968,4.29837 -0.19595,1.0267 z m -1.98211,7.69017 0.36311,-1.35985 2.94719,-1.16161 -1.97277,-2.48763 0.33553,-1.25657 2.52795,3.35506 3.87503,-1.62075 -0.36311,1.35986 -2.90396,1.16085 1.93721,2.45969 -0.33707,1.26231 -2.48319,-3.36154 z m -2.27042,6.66989 0.36137,-1.04384 4.7085,1.63003 -3.57195,-4.91307 0.33029,-0.95405 6.26864,2.17014 -0.36136,1.04384 -4.64116,-1.60672 3.51626,4.85609 -0.34194,0.98772 z m -2.83942,6.78327 0.43874,-1.02021 0.64923,0.27919 q -0.0341,-0.17627 -0.10233,-0.4836 -0.0651,-0.29953 -0.0695,-0.55999 -0.0152,-0.31038 0.0461,-0.67837 0.0558,-0.37034 0.24822,-0.81771 0.35427,-0.82381 1.1462,-1.16204 0.79192,-0.33823 1.63756,0.0254 0.69287,0.29797 0.99173,0.77558 0.30196,0.48542 0.3105,1.14202 0.006,0.66207 -0.24203,1.47977 -0.24821,0.81771 -0.58935,1.73122 l 0.15822,0.068 q 0.34917,0.15016 0.63227,0.12321 0.28076,-0.0215 0.51023,-0.19431 0.21933,-0.16427 0.39437,-0.45102 0.17503,-0.28675 0.31815,-0.61955 0.17362,-0.40372 0.27801,-0.94712 0.10985,-0.54104 0.13557,-1.15706 l 0.0235,-0.0546 1.04204,0.44813 q -0.0472,0.33526 -0.19301,0.94488 -0.1458,0.60963 -0.38277,1.16066 -0.27685,0.64377 -0.59008,1.0715 -0.31013,0.43552 -0.71671,0.67442 -0.39877,0.23578 -0.87446,0.24455 -0.47569,0.009 -1.06491,-0.24463 z m 1.93907,-0.37501 1.69673,0.72967 q 0.17449,-0.48092 0.39444,-1.1427 0.2176,-0.65633 0.27349,-1.07189 0.0646,-0.49588 -0.0855,-0.88363 -0.14457,-0.3854 -0.6083,-0.58483 -0.52375,-0.22524 -0.92716,-0.0238 -0.39796,0.20381 -0.67715,0.85305 -0.23228,0.54011 -0.21735,1.07664 0.0204,0.53887 0.15076,1.04746 z m -0.0432,9.22265 1.08775,-2.13853 -5.03932,-2.56323 0.50618,-0.99516 5.03933,2.56322 1.08775,-2.13853 0.87341,0.44425 -2.68169,5.27224 z m -5.66923,5.20274 q -0.69431,-0.41267 -1.15285,-0.95464 -0.45344,-0.53894 -0.63621,-1.13808 -0.17752,-0.56148 -0.11375,-1.14535 0.0659,-0.57573 0.36928,-1.08625 0.26398,-0.44415 0.57641,-0.74896 0.3094,-0.29971 0.73511,-0.55102 l -2.38922,-1.42004 0.57045,-0.95977 7.80579,4.63941 -0.57044,0.95977 -0.59731,-0.35501 q 0.0941,0.57405 0.0263,1.17627 -0.0657,0.61036 -0.38733,1.15151 -0.61293,1.03124 -1.73385,1.13877 -1.11886,0.11568 -2.50236,-0.70661 z m 0.56312,-1.00558 q 1.03124,0.61293 1.75113,0.5641 0.71988,-0.0488 1.15378,-0.77887 0.24578,-0.41352 0.31591,-0.93834 0.0701,-0.52482 0.007,-1.08066 l -3.23157,-1.9207 q -0.42653,0.29917 -0.66585,0.55072 -0.24236,0.25666 -0.46386,0.62933 -0.47638,0.80151 -0.20225,1.5724 0.27413,0.77089 1.336,1.40202 z m -7.64301,5.30597 0.6332,-0.90512 4.08278,2.8562 -2.09127,-5.70296 0.57873,-0.82726 5.4356,3.80259 -0.6332,0.90512 -4.02439,-2.81534 2.05331,5.6329 -0.59916,0.85646 z m -4.59523,5.75618 0.70516,-0.86564 1.9753,1.6091 q 0.2124,-0.52402 0.44545,-0.96996 0.23304,-0.44593 0.60062,-0.89716 0.67515,-0.82881 1.43667,-0.93616 0.76612,-0.10359 1.53506,0.52279 l 1.86941,1.52283 -0.70516,0.86564 -1.42738,-1.16275 q -0.29468,-0.24006 -0.55951,-0.39451 -0.26023,-0.15071 -0.52812,-0.16977 -0.26328,-0.0153 -0.52705,0.12983 -0.26378,0.14514 -0.57884,0.53191 -0.25881,0.31771 -0.50277,0.73943 -0.23935,0.42547 -0.38152,0.76925 l 2.491,2.0292 -0.70515,0.86563 z m -5.25672,5.69613 0.76639,-0.81192 2.17232,2.0505 2.27879,-2.41416 -2.17232,-2.0505 0.76639,-0.81192 4.82401,4.5535 -0.76639,0.81192 -1.95206,-1.8426 -2.27879,2.41417 1.95206,1.84259 -0.76639,0.81192 z m -5.3739,5.01955 0.81896,-0.75011 0.47734,0.52116 q 0.0413,-0.17474 0.10526,-0.48298 0.0636,-0.29986 0.16657,-0.53914 0.11357,-0.28925 0.32055,-0.59963 0.20296,-0.31476 0.56208,-0.64368 0.66129,-0.6057 1.52226,-0.58894 0.86096,0.0168 1.48271,0.69557 0.50943,0.55619 0.58582,1.11439 0.076,0.5666 -0.1858,1.16881 -0.26619,0.60622 -0.82827,1.2499 -0.56208,0.64368 -1.24822,1.33656 l 0.11633,0.12701 q 0.25672,0.28028 0.52592,0.37196 0.26482,0.0957 0.54503,0.0323 0.26743,-0.0597 0.54477,-0.24932 0.27734,-0.1896 0.54448,-0.43428 0.32408,-0.29684 0.64238,-0.74945 0.32232,-0.44823 0.59871,-0.99936 l 0.0438,-0.0401 0.76615,0.83648 q -0.1807,0.28631 -0.56396,0.78231 -0.38326,0.496 -0.82558,0.90113 -0.51677,0.47333 -0.97801,0.73472 -0.4616,0.26978 -0.93041,0.32067 -0.46042,0.0513 -0.89777,-0.13607 -0.43734,-0.18733 -0.87055,-0.6603 z m 1.92205,0.45424 1.2475,1.362 q 0.35658,-0.36687 0.82886,-0.87998 0.4679,-0.5091 0.68949,-0.86507 0.26247,-0.42564 0.28489,-0.8408 0.0264,-0.41077 -0.31453,-0.78302 -0.38508,-0.42043 -0.83563,-0.40237 -0.44655,0.0224 -0.9677,0.49978 -0.43357,0.39712 -0.64025,0.89246 -0.20268,0.49972 -0.29263,1.017 z m -11.73631,7.14071 1.18028,-0.86099 4.01821,0.83255 0.48938,-0.357 -1.79197,-2.45652 0.902,-0.658 3.90945,5.35926 -0.902,0.65799 -1.68698,-2.31259 q -0.44621,0.3255 -0.60419,0.68333 -0.15448,0.36262 -0.0874,0.85767 0.0273,0.17854 0.07,0.36798 0.0413,0.19773 0.077,0.37757 0.146,0.72416 -0.0322,1.26584 -0.17824,0.54168 -0.87873,1.05267 l -0.41262,0.301 -0.56699,-0.77726 0.39822,-0.2905 q 0.37904,-0.27649 0.47594,-0.59712 0.0956,-0.31233 -0.0257,-0.84135 -0.13708,-0.591 -0.0857,-0.974 0.0501,-0.3747 0.20601,-0.66485 z m -5.55815,3.49419 0.94653,-0.59216 3.02064,4.8283 2.09948,-1.31346 q -0.24633,-0.42733 -0.47376,-0.82445 -0.22742,-0.39712 -0.40761,-0.71873 -0.49077,-0.86284 -0.72519,-1.41671 -0.23127,-0.54884 -0.30825,-0.96302 -0.0745,-0.38775 -0.0463,-0.6786 0.0263,-0.28266 0.0999,-0.54583 0.0767,-0.25813 0.2409,-0.46594 0.15917,-0.20467 0.40587,-0.35901 0.0856,-0.0535 0.25489,-0.15245 0.16426,-0.0958 0.21461,-0.12726 l 0.51656,0.8257 -0.0503,0.0315 q -0.0403,0.0252 -0.11894,0.0674 -0.0787,0.0422 -0.12902,0.0737 -0.12083,0.0756 -0.22465,0.18958 -0.10886,0.11714 -0.13964,0.26949 -0.0993,0.41238 0.11947,1.10915 0.21874,0.69678 0.8771,1.86109 0.23814,0.42544 0.57581,0.99878 0.33579,0.58153 0.64196,1.10452 l -3.8717,2.42218 z m -6.8484,3.70601 0.97723,-0.51499 2.32297,4.40804 0.75057,-6.02775 0.89316,-0.47069 3.09269,5.86863 -0.97723,0.51498 -2.28975,-4.34499 -0.75227,5.94809 -0.92469,0.4873 z m -7.07598,3.16457 1.02396,-0.44503 1.19072,2.73965 3.04466,-1.32328 -1.19071,-2.73965 1.02397,-0.44504 2.64419,6.08389 -1.02397,0.44504 -1.06998,-2.46188 -3.04467,1.32328 1.06998,2.46188 -1.02396,0.44503 z m -7.32643,2.63836 1.04322,-0.36315 1.63806,4.70572 1.64304,-5.84787 0.95349,-0.33191 2.18082,6.26494 -1.04322,0.36315 -1.61463,-4.63841 -1.63282,5.76884 -0.98714,0.34362 z m -7.88615,2.19154 1.41085,-0.3793 3.45056,2.22097 0.58499,-0.15727 -0.78944,-2.93641 1.07821,-0.28987 1.72228,6.40618 -1.07821,0.28988 -0.74319,-2.76435 q -0.53337,0.14339 -0.80939,0.42054 -0.27448,0.28288 -0.38979,0.76896 -0.0387,0.17644 -0.067,0.36854 -0.0325,0.19937 -0.0639,0.38 -0.124,0.72825 -0.48499,1.16969 -0.361,0.44144 -1.19834,0.66655 l -0.49322,0.1326 -0.24979,-0.92909 0.47602,-0.12798 q 0.45308,-0.12181 0.65874,-0.38619 0.20147,-0.2571 0.27841,-0.79436 0.0845,-0.60079 0.27009,-0.93972 0.18142,-0.33166 0.43117,-0.5464 z m -6.24959,1.22894 1.09002,-0.21259 0.13528,0.69365 q 0.1264,-0.12751 0.34181,-0.35709 0.21071,-0.22262 0.42341,-0.37302 0.24781,-0.18749 0.58633,-0.34428 0.33738,-0.16261 0.81535,-0.25583 0.88018,-0.17166 1.60591,0.29187 0.72573,0.46353 0.90194,1.36702 0.14438,0.74028 -0.0817,1.25633 -0.23079,0.52302 -0.76836,0.90015 -0.5434,0.37826 -1.35875,0.63409 -0.81536,0.25583 -1.76222,0.48891 l 0.033,0.16904 q 0.0728,0.37306 0.25457,0.59173 0.17599,0.2198 0.44809,0.31195 0.25931,0.0886 0.59483,0.0716 0.33551,-0.017 0.69108,-0.0864 0.43135,-0.0841 0.93905,-0.30416 0.50884,-0.2142 1.03219,-0.54015 l 0.0583,-0.0114 0.21713,1.11334 q -0.30354,0.14996 -0.88929,0.37312 -0.58575,0.22315 -1.17448,0.33797 -0.68782,0.13415 -1.21768,0.11648 -0.53455,-0.0107 -0.96104,-0.21192 -0.41952,-0.19651 -0.69487,-0.58451 -0.27534,-0.388 -0.39812,-1.01753 z m 1.40265,1.39039 0.35356,1.81281 q 0.49561,-0.12691 1.16623,-0.31821 0.6648,-0.19017 1.03957,-0.37822 0.446,-0.22615 0.68174,-0.56862 0.23689,-0.33663 0.14025,-0.83209 -0.10913,-0.55959 -0.50292,-0.77927 -0.39265,-0.21386 -1.0863,-0.0786 -0.57707,0.11255 -1.01185,0.42727 -0.43364,0.32055 -0.78028,0.7149 z m -10.42265,8.97974 -0.0516,-3.44766 0.78081,-0.0698 0.56034,3.40221 z m 2.28329,-0.20399 -0.0516,-3.44766 0.78081,-0.0697 0.56034,3.40221 z m -11.90081,-5.95575 q -0.014,-0.64124 0.22983,-1.16932 0.23793,-0.52795 0.65234,-0.86374 0.49016,-0.40278 1.05651,-0.58151 0.56635,-0.17873 1.46884,-0.19849 l 3.20619,-0.0702 0.19356,8.84079 -5.91958,0.1296 -0.0229,-1.04498 4.74398,-0.10387 -0.053,-2.42245 -2.06621,0.0452 q -0.90249,0.0198 -1.47482,-0.0746 -0.5722,-0.0885 -1.08545,-0.46927 -0.45892,-0.34043 -0.68397,-0.8523 -0.231,-0.51175 -0.2453,-1.16486 z m 1.22853,-0.0507 q 0.01,0.44531 0.16559,0.78049 0.15584,0.33518 0.47508,0.5361 0.33136,0.21253 0.7599,0.25067 0.42853,0.0381 1.20633,0.0211 l 1.69809,-0.0372 -0.0734,-3.35463 -1.6684,0.0365 q -0.78968,0.0173 -1.20954,0.10371 -0.42581,0.0865 -0.74161,0.31325 -0.32743,0.23884 -0.47504,0.55096 -0.14748,0.31806 -0.13695,0.79899 z m -8.68865,0.25026 q 0.0875,-1.61894 0.9684,-2.51102 0.88087,-0.89208 2.27446,-0.81674 1.40545,0.076 2.18502,1.05783 0.77363,0.98152 0.68611,2.60046 -0.0875,1.61893 -0.96247,2.51133 -0.88119,0.89802 -2.28664,0.82204 -1.39359,-0.0753 -2.17284,-1.06312 -0.77956,-0.98185 -0.69204,-2.60078 z m 1.15045,0.0622 q -0.0696,1.28685 0.40083,1.93676 0.47008,0.65585 1.36554,0.70426 0.90731,0.0491 1.44536,-0.5523 0.53179,-0.59573 0.60136,-1.88258 0.0673,-1.24533 -0.40179,-1.91897 -0.46944,-0.66771 -1.37083,-0.71644 -0.88952,-0.0481 -1.42789,0.55919 -0.54462,0.61289 -0.61258,1.87008 z m -8.00225,-4.21365 1.10764,0.14041 -0.71625,5.65011 2.45682,0.31144 q 0.0797,-0.48677 0.15485,-0.93818 0.0752,-0.45142 0.13917,-0.81446 0.16597,-0.97868 0.33492,-1.5559 0.16821,-0.57133 0.37069,-0.94076 0.1877,-0.34736 0.39358,-0.55473 0.19924,-0.20222 0.42271,-0.35947 0.22272,-0.15135 0.48137,-0.20836 0.25277,-0.0577 0.54146,-0.0212 0.10016,0.0127 0.29383,0.0432 0.18779,0.0298 0.24671,0.0373 l -0.12249,0.96623 -0.0589,-0.007 q -0.0471,-0.006 -0.13476,-0.0231 -0.0876,-0.0171 -0.14654,-0.0246 -0.1414,-0.0179 -0.29392,0.005 -0.15841,0.0218 -0.27865,0.12032 -0.33782,0.25649 -0.60934,0.93444 -0.27152,0.67796 -0.49849,1.99612 -0.0848,0.48013 -0.18613,1.13775 -0.10796,0.66277 -0.20182,1.26148 l -4.53069,-0.57434 z m -7.16603,-1.36019 1.09473,0.21936 -0.51687,2.57962 1.2869,0.25785 2.53166,-2.17592 1.2869,0.25786 -2.72736,2.24573 q 0.79768,0.40211 1.09215,0.95777 0.2933,0.56149 0.13696,1.34178 -0.10385,0.51826 -0.40911,0.83262 -0.30526,0.31436 -0.70597,0.47028 -0.39372,0.15128 -0.86309,0.13597 -0.47054,-0.009 -1.00626,-0.11683 l -2.50392,-0.50171 z m 0.40517,3.66079 -0.4387,2.18948 1.38007,0.27652 q 0.44838,0.0899 0.65219,0.1004 0.20382,0.0106 0.46241,-0.0709 0.25277,-0.0826 0.40775,-0.28171 0.14799,-0.19446 0.19932,-0.45067 0.0642,-0.32027 0.0398,-0.53109 -0.0302,-0.21198 -0.20483,-0.42868 -0.18162,-0.21204 -0.47741,-0.33793 -0.29695,-0.12007 -0.67545,-0.19591 z m -9.07765,-2.44528 q 0.21509,-0.77852 0.61705,-1.36369 0.40038,-0.57945 0.93016,-0.91367 0.49484,-0.31922 1.07488,-0.41159 0.57273,-0.0882 1.14516,0.0699 0.49802,0.13759 0.8744,0.35864 0.37066,0.21947 0.72528,0.56389 l 0.74014,-2.67901 1.07618,0.29733 -2.4181,8.75256 -1.07618,-0.29732 0.18503,-0.66975 q -0.52896,0.24202 -1.12775,0.33537 -0.6061,0.0975 -1.21288,-0.0702 -1.15632,-0.31947 -1.55548,-1.37242 -0.40647,-1.04882 0.0221,-2.60012 z m 1.11844,0.27819 q -0.31946,1.15632 -0.0826,1.83788 0.23683,0.68156 1.05542,0.90771 0.46367,0.12811 0.98842,0.0574 0.52475,-0.0707 1.04423,-0.27834 l 1.00108,-3.62353 q -0.40101,-0.3326 -0.70674,-0.49716 -0.31146,-0.16614 -0.72934,-0.28159 -0.89872,-0.2483 -1.57011,0.21932 -0.67138,0.46761 -1.00033,1.65828 z m -8.30688,-2.86877 q 0.5434,-1.52752 1.64124,-2.13291 1.09784,-0.60539 2.41274,-0.13763 1.32609,0.47174 1.79494,1.63447 0.46325,1.16074 -0.0801,2.68826 -0.5434,1.52752 -1.63565,2.1349 -1.09983,0.61099 -2.42592,0.13925 -1.3149,-0.46777 -1.78175,-1.63609 -0.46885,-1.16273 0.0745,-2.69025 z m 1.08549,0.38616 q -0.43193,1.21418 -0.16533,1.97088 0.26461,0.76229 1.1095,1.06285 0.85608,0.30455 1.54268,-0.11936 0.679,-0.42031 1.11094,-1.6345 0.418,-1.17501 0.15936,-1.95409 -0.26063,-0.77349 -1.11112,-1.07604 -0.83929,-0.29857 -1.52788,0.13094 -0.69617,0.43311 -1.11815,1.61932 z m -7.39766,-4.51858 q 0.19278,-0.44073 0.52228,-0.70497 0.32405,-0.26663 0.73415,-0.35949 0.46009,-0.1034 0.92359,-0.0368 0.45806,0.0642 1.12731,0.35698 l 2.51376,1.09958 -2.6585,6.07765 -2.35053,-1.02818 q -0.68014,-0.2975 -1.0015,-0.49642 -0.32919,-0.19585 -0.56486,-0.48692 -0.26425,-0.3295 -0.2959,-0.68689 -0.0371,-0.35978 0.13428,-0.75153 0.19754,-0.45161 0.59845,-0.67165 0.40091,-0.22004 0.88447,-0.22892 l 0.0238,-0.0544 q -0.48154,-0.36621 -0.66554,-0.89396 -0.19183,-0.5247 0.0747,-1.13409 z m 0.20322,3.28458 q -0.0857,0.19588 -0.0677,0.39175 0.0126,0.19349 0.14863,0.35671 0.17854,0.21422 0.46216,0.35125 0.27579,0.14008 0.69475,0.32335 l 1.06645,0.46649 0.72829,-1.66496 -1.27864,-0.55931 q -0.40264,-0.17613 -0.60498,-0.23222 -0.21016,-0.053 -0.4584,-0.019 -0.26388,0.0402 -0.41621,0.18094 -0.16016,0.14385 -0.2744,0.40502 z m 0.85472,-2.8283 q -0.1309,0.29926 -0.11389,0.5271 0.0146,0.23328 0.27752,0.53625 0.16392,0.18838 0.39619,0.30942 0.22988,0.12649 0.65429,0.31213 l 1.31129,0.57359 0.86871,-1.98598 -0.9685,-0.42365 q -0.6094,-0.26656 -0.95252,-0.37128 -0.35095,-0.10165 -0.64986,-0.0704 -0.2989,0.0313 -0.49885,0.17721 -0.20538,0.14351 -0.32438,0.41556 z m -8.38062,-2.75926 q 0.75287,-1.43589 1.92495,-1.88084 1.17208,-0.44494 2.40811,0.20313 1.24654,0.65359 1.54718,1.8707 0.29537,1.21436 -0.4575,2.65026 -0.75287,1.43589 -1.91969,1.8836 -1.17484,0.4502 -2.42139,-0.20339 -1.23602,-0.64807 -1.5339,-1.87044 -0.30063,-1.21712 0.45224,-2.65302 z m 1.02038,0.53501 q -0.59843,1.14135 -0.44092,1.92803 0.15475,0.79193 0.94896,1.20835 0.80473,0.42194 1.54413,0.0988 0.73138,-0.32061 1.32981,-1.46197 0.57913,-1.10453 0.43265,-1.91225 -0.14924,-0.80245 -0.94871,-1.22163 -0.78895,-0.41367 -1.53111,-0.0853 -0.75017,0.33088 -1.33481,1.44594 z m -8.74122,1.73291 2.00242,-2.80702 0.67015,0.40674 -1.56581,3.07202 z m 1.95968,1.18941 2.00242,-2.80702 0.67014,0.40674 -1.5658,3.07202 z"
       id="text35"
       style="font-size:12.1627px;white-space:pre;fill:#800000;stroke-width:0.4;stroke-dasharray:none;stroke:#6e0000;stroke-opacity:1"
       transform="rotate(-146.00815,218.405,172.10232)"
       aria-label="Психиатрична клиника &quot;Болярово&quot;" />
    <text
       xml:space="preserve"
       transform="scale(0.26458333)"
       id="text36"
       style="fill:#800000;font-size:24px;opacity:1;fill-opacity:1;white-space:pre;shape-inside:url(#rect36)" />
  </g>
</svg>
